<svg id="svg-face" viewBox="1 1 18 10" xmlns="http://www.w3.org/2000/svg">
  <rect x="1" y="1" width="18" height="10" fill="#3ac73a"></rect>
  <rect x="2" y="2" width="16" height="8" fill="#2aaa2a"></rect>
  <rect x="3" y="3" width="14" height="6" fill="#32b832"></rect>
  <rect x="2" y="2" width="2" height="2" fill="#4adf4a" opacity=".4"></rect>
  <rect x="16" y="2" width="2" height="2" fill="#4adf4a" opacity=".4"></rect>
  <rect x="2" y="8" width="2" height="2" fill="#4adf4a" opacity=".4"></rect>
  <rect x="16" y="8" width="2" height="2" fill="#4adf4a" opacity=".4"></rect>
  <rect x="4" y="3" width="4" height="5" fill="#e8e8e8"></rect>
  <rect x="5" y="3" width="3" height="1" fill="#0a0a0a"></rect>
  <rect x="5" y="4" width="1" height="1" fill="#0a0a0a"></rect>
  <rect x="5" y="5" width="3" height="1" fill="#0a0a0a"></rect>
  <rect x="7" y="6" width="1" height="1" fill="#0a0a0a"></rect>
  <rect x="5" y="7" width="3" height="1" fill="#0a0a0a"></rect>
  <rect x="12" y="3" width="4" height="5" fill="#e8e8e8"></rect>
  <rect x="13" y="3" width="3" height="1" fill="#0a0a0a"></rect>
  <rect x="13" y="4" width="1" height="1" fill="#0a0a0a"></rect>
  <rect x="13" y="5" width="3" height="1" fill="#0a0a0a"></rect>
  <rect x="15" y="6" width="1" height="1" fill="#0a0a0a"></rect>
  <rect x="13" y="7" width="3" height="1" fill="#0a0a0a"></rect>
  <rect x="9" y="8" width="2" height="1" fill="#1a6a1a"></rect>
</svg>